<svg xmlns="http://www.w3.org/2000/svg" class="ionicon" viewBox="0 0 512 512"><path d="M256 153.9A102.1 102.1 0 10358.1 256 102.23 102.23 0 00256 153.9z"/><circle cx="402.59" cy="116.45" r="46.52"/><path d="M459.86 163.2l-1.95-4.28-3.11 3.52a70 70 0 01-28.06 19.32l-3 1.1 1.22 2.93A181.43 181.43 0 01439 256c0 100.92-82.1 183-183 183S73 356.92 73 256 155.08 73 256 73a180.94 180.94 0 0178.43 17.7l2.87 1.3 1.25-2.92A70.19 70.19 0 01359.21 62l3.67-2.93-4.17-2.07A221.61 221.61 0 00256 32C132.49 32 32 132.49 32 256s100.49 224 224 224 224-100.49 224-224a222.19 222.19 0 00-20.14-92.8z"/></svg>