<svg xmlns="http://www.w3.org/2000/svg" class="ionicon" viewBox="0 0 512 512"><path d="M494.07 281.6l-25.18-78.08a11 11 0 00-.61-2.1l-50.5-156.94a20.08 20.08 0 00-19.17-13.82 19.77 19.77 0 00-18.95 13.94l-48.14 149.55h-152L131.34 44.59a19.76 19.76 0 00-18.86-13.94h-.11a20.15 20.15 0 00-19.12 14L42.7 201.73c0 .14-.11.26-.16.4l-25.63 79.48a29.15 29.15 0 0010.44 32.46l221.44 162.41a11.25 11.25 0 0013.38-.07l221.48-162.34a29.13 29.13 0 0010.42-32.47m-331-64.51l61.73 191.76L76.63 217.09m209.64 191.8l59.19-183.84 2.55-8h86.52L300.47 390.44M398.8 59.31l43.37 134.83h-86.82M324.16 217l-43 133.58-25.66 79.56L186.94 217M112.27 59.31l43.46 134.83H69M40.68 295.58a6.19 6.19 0 01-2.21-6.9l19-59 139.61 180.59m273.26-114.69L313.92 410.22l.52-.69L453.5 229.64l19 59a6.2 6.2 0 01-2.19 6.92"/></svg>